# xmcd CD database file
#
# Track frame offsets:
#	183
#	11433
#	31533
#	44433
#	63783
#	74958
#	87033
#	98733
#	130233
#	145908
#	163908
#	176283
#	190158
#	200583
#	210033
#	225258
#	237783
#	250508
#	263433
#	274083
#	290508
#	304983
#	319158
#
# Disc length: 4501 seconds
#
# Revision: 5
# Processed by: cddbd v1.5.2PL0 Copyright (c) Steve Scherf et al.
# Submitted via: CDex 1.51
#
DISCID=33119317
DTITLE=Nina Simone - Wild Is The Wind and High Priestess Of Soul
DYEAR=1994
DGENRE=Jazz
TTITLE0=I Love Your Lovin' Ways
TTITLE1=Four Women
TTITLE2=What More Can I Say
TTITLE3=Lilac Wine
TTITLE4=That's All I Ask
TTITLE5=Break Down And Let It All Out
TTITLE6=Why Keep On Breaking My Heart
TTITLE7=Wild Is The Wind
TTITLE8=Black Is The Color Of My True Love's Hair
TTITLE9=If I Should Lose You
TTITLE10=Either Way I Lose
TTITLE11=Don't You Pay Them No Mind
TTITLE12=I'm Gonna Leave You
TTITLE13=Brown Eyed Handsome Man
TTITLE14=Keeper Of The Flame
TTITLE15=The Gal From Joe's
TTITLE16=Take Me To The Water
TTITLE17=I'm Going Back Home
TTITLE18=I Hold No Grudge
TTITLE19=Come Ye
TTITLE20=He Ain't Coming Home No More
TTITLE21=Work Song
TTITLE22=I Love My Baby
EXTD=YEAR: 1994
EXTT0=
EXTT1=
EXTT2=
EXTT3=
EXTT4=
EXTT5=
EXTT6=
EXTT7=
EXTT8=
EXTT9=
EXTT10=
EXTT11=
EXTT12=
EXTT13=
EXTT14=
EXTT15=
EXTT16=
EXTT17=
EXTT18=
EXTT19=
EXTT20=
EXTT21=
EXTT22=
PLAYORDER=
